<svg width="32" height="32" viewBox="0 0 32 32" fill="none" xmlns="http://www.w3.org/2000/svg">
  <defs>
    <linearGradient id="unity-gradient" x1="0%" y1="0%" x2="100%" y2="100%">
      <stop offset="0%" style="stop-color:#512783"/>
      <stop offset="100%" style="stop-color:#6b3a9e"/>
    </linearGradient>
  </defs>
  <rect width="32" height="32" rx="8" fill="url(#unity-gradient)"/>
  <path d="M6 6C6 4.89543 6.89543 4 8 4H16.5C17.6046 4 18.5 4.89543 18.5 6V18C18.5 19.1046 17.6046 20 16.5 20H8C6.89543 20 6 19.1046 6 18V6Z" fill="white" fill-opacity="0.9"/>
  <path d="M22.2134 20.5L18.3001 16.587V7.413L22.2134 3.5C23.5387 2.175 26.0001 3.115 26.0001 5.08V18.92C26.0001 20.885 23.5387 21.825 22.2134 20.5Z" fill="white" fill-opacity="0.9"/>
  <circle cx="23" cy="26" r="4" fill="#f18918"/>
  <path d="M21.5 26L22.5 27L24.5 25" stroke="white" stroke-width="1.5" stroke-linecap="round" stroke-linejoin="round"/>
</svg>
